<svg xmlns="http://www.w3.org/2000/svg" xmlns:xlink="http://www.w3.org/1999/xlink" viewBox="0 0 1785.211 1117"><defs><style>.a{opacity:0.25;}.b{clip-path:url(#a);}.c,.e{fill:#22469a;}.d,.k{fill:#3166cb;}.d,.e,.f,.h,.i,.j,.l,.m,.n,.p,.q{fill-rule:evenodd;}.f{fill:#14296e;}.g,.i{fill:#3165c9;}.h{fill:#4582e8;}.j,.o{fill:#264fa8;}.l{fill:#1d3c8a;}.m{fill:#214497;}.n{fill:#23499f;}.p{fill:#254ca4;}.q{fill:#2d5ebf;}</style><clipPath id="a"><path class="a" d="M0,387.585,1785-25l.211,666.09L0,1092Z" transform="translate(776 1541)"/></clipPath></defs><g transform="translate(-776 -1516)"><g class="b"><g transform="translate(1371 1641)"><path class="c" d="M-1371,335.276V-111.181h148.819V335.276Zm0-446.457V-260h148.819v148.819Z" transform="translate(1371 260)"/><path class="d" d="M297.638,297.638H595.276V595.276H297.638V297.638Z"/><path class="e" d="M446.457,0H595.276V297.638H446.457V0Z"/><path class="f" d="M148.819,0H446.457L595.276,148.819,446.457,297.638,297.638,446.457V297.638H148.819V0Z"/><path class="g" d="M-1371,433.071V186.4h.058l148.76-148.76V-260l148.82,148.819V186.457h-148.82V433.071Z" transform="translate(1371 408.819)"/><path class="e" d="M595.276,582.734H459l-12.541,12.542H595.276V582.734Z"/><path class="e" d="M595.276,559.033H482.7l-12.541,12.542H595.276V559.033Z"/><path class="e" d="M595.276,535.332H506.4l-12.541,12.541H595.276V535.332Z"/><path class="e" d="M595.276,511.631H530.1L517.56,524.172h77.716V511.631Z"/><path class="e" d="M595.276,487.93H553.8l-12.542,12.541h54.015V487.93Z"/><path class="e" d="M595.276,464.229H577.5L564.962,476.77h30.314V464.229Z"/><path class="e" d="M588.664,453.069h6.612v-6.612l-6.612,6.612Z"/><path class="h" d="M297.638,582.734H161.36l-12.541,12.542H297.638V582.734Z"/><path class="h" d="M297.638,559.033H185.062L172.52,571.575H297.638V559.033Z"/><path class="h" d="M297.638,535.332H208.763l-12.542,12.541H297.638V535.332Z"/><path class="h" d="M297.638,511.631H232.464l-12.542,12.541h77.716V511.631Z"/><path class="h" d="M297.638,487.93H256.165l-12.541,12.541h54.014V487.93Z"/><path class="h" d="M297.638,464.229H279.866L267.325,476.77h30.313V464.229Z"/><path class="h" d="M291.026,453.069h6.612v-6.612l-6.612,6.612Z"/><path class="f" d="M191.853,329.579a2.456,2.456,0,1,0,2.455,2.455,2.456,2.456,0,0,0-2.455-2.455Zm0,24.867a2.456,2.456,0,1,0,2.455,2.456,2.456,2.456,0,0,0-2.455-2.456Zm-20.882,0a2.456,2.456,0,1,0,2.455,2.456,2.456,2.456,0,0,0-2.455-2.456Zm20.882,24.867a2.456,2.456,0,1,0,2.455,2.455,2.456,2.456,0,0,0-2.455-2.455Zm-20.882,0a2.456,2.456,0,1,0,2.455,2.455,2.456,2.456,0,0,0-2.455-2.455Zm-20.883,0a2.456,2.456,0,1,0,2.456,2.456,2.456,2.456,0,0,0-2.456-2.456Zm41.765,24.867a2.456,2.456,0,1,0,2.455,2.456,2.456,2.456,0,0,0-2.455-2.456Zm-20.882,0a2.456,2.456,0,1,0,2.455,2.456,2.456,2.456,0,0,0-2.455-2.456Zm-20.883,0a2.456,2.456,0,1,0,2.456,2.456,2.456,2.456,0,0,0-2.456-2.456Zm-20.882,0a2.456,2.456,0,1,0,2.456,2.456,2.456,2.456,0,0,0-2.456-2.456Zm62.647,24.867a2.455,2.455,0,1,0,2.455,2.455,2.456,2.456,0,0,0-2.455-2.455Zm-20.882,0a2.455,2.455,0,1,0,2.455,2.455,2.456,2.456,0,0,0-2.455-2.455Zm-20.883,0a2.455,2.455,0,1,0,2.456,2.456,2.455,2.455,0,0,0-2.456-2.456Zm-20.882,0a2.455,2.455,0,1,0,2.456,2.456,2.455,2.455,0,0,0-2.456-2.456Zm-20.883,0a2.455,2.455,0,1,0,2.456,2.456,2.455,2.455,0,0,0-2.456-2.456Zm83.53,24.867a2.456,2.456,0,1,0,2.455,2.456,2.456,2.456,0,0,0-2.455-2.456Zm-20.882,0a2.456,2.456,0,1,0,2.455,2.456,2.456,2.456,0,0,0-2.455-2.456Zm-20.883,0a2.456,2.456,0,1,0,2.456,2.456,2.456,2.456,0,0,0-2.456-2.456Zm-20.882,0a2.456,2.456,0,1,0,2.456,2.456,2.456,2.456,0,0,0-2.456-2.456Zm-20.883,0a2.456,2.456,0,1,0,2.456,2.456,2.456,2.456,0,0,0-2.456-2.456Zm-20.882,0a2.456,2.456,0,1,0,2.455,2.456,2.456,2.456,0,0,0-2.455-2.456ZM191.853,478.78a2.456,2.456,0,1,0,2.455,2.456,2.456,2.456,0,0,0-2.455-2.456Zm-20.882,0a2.456,2.456,0,1,0,2.455,2.456,2.456,2.456,0,0,0-2.455-2.456Zm-20.883,0a2.456,2.456,0,1,0,2.456,2.456,2.456,2.456,0,0,0-2.456-2.456Zm-20.882,0a2.456,2.456,0,1,0,2.456,2.456,2.456,2.456,0,0,0-2.456-2.456Zm-20.883,0a2.456,2.456,0,1,0,2.456,2.456,2.456,2.456,0,0,0-2.456-2.456Zm-20.882,0a2.456,2.456,0,1,0,2.455,2.456,2.456,2.456,0,0,0-2.455-2.456Zm-20.882,0a2.456,2.456,0,1,0,2.455,2.456,2.456,2.456,0,0,0-2.455-2.456Z" transform="translate(0 0.11)"/><path class="h" d="M322.942,97.781h98.4v7.293h-98.4V97.781Z"/><path class="h" d="M322.942,84h98.4v7.292h-98.4V84Z"/><path class="h" d="M322.942,70.218h98.4v7.293h-98.4V70.218Z"/><path class="h" d="M322.942,56.437h98.4v7.292h-98.4V56.437Z"/><path class="h" d="M322.942,42.655h98.4v7.293h-98.4V42.655Z"/><path class="h" d="M322.942,28.873h98.4v7.293h-98.4V28.873Z"/><path class="h" d="M322.942,15.092h98.4v7.292h-98.4V15.092Z"/><path class="h" d="M23.632,277.4H125.186a74.76,74.76,0,0,1-19.138,12.921H42.771A74.777,74.777,0,0,1,23.632,277.4Z" transform="translate(0 0.11)"/><path class="h" d="M6.182,252.982h46.4a37.328,37.328,0,0,0,43.665,0h46.4a74.573,74.573,0,0,1-7.365,12.921H13.546a74.575,74.575,0,0,1-7.364-12.921Z" transform="translate(0 0.11)"/><path class="h" d="M.014,228.563h37.54a37.069,37.069,0,0,0,4.6,12.921H2.168A74.4,74.4,0,0,1,.014,228.563Zm111.251,0H148.8a74.409,74.409,0,0,1-2.154,12.921H106.667a37.065,37.065,0,0,0,4.6-12.921Z" transform="translate(0 0.11)"/><path class="h" d="M2.12,204.145H42.044a37.066,37.066,0,0,0-4.519,12.921H0a74.434,74.434,0,0,1,2.12-12.921Zm104.656,0H146.7a74.434,74.434,0,0,1,2.12,12.921H111.295a37.059,37.059,0,0,0-4.519-12.921Z" transform="translate(0 0.11)"/><path class="h" d="M13.415,179.727H135.4a74.548,74.548,0,0,1,7.317,12.921H96.5a37.326,37.326,0,0,0-44.176,0H6.1a74.53,74.53,0,0,1,7.317-12.921Z" transform="translate(0 0.11)"/><path class="h" d="M42.378,155.309h64.063a74.773,74.773,0,0,1,18.945,12.921H23.433a74.786,74.786,0,0,1,18.945-12.921Z" transform="translate(0 0.11)"/><path class="f" d="M520.866,297.643h37.2v37.2h37.205v37.2H558.071v37.2h37.205v37.2H558.071v-37.2h-37.2V372.047h37.2v-37.2h-37.2v-37.2Z"/><path class="i" d="M297.638,285.1H433.915l12.542,12.542H297.638V285.1Z"/><path class="i" d="M297.638,261.395H410.214l12.541,12.542H297.638V261.395Z"/><path class="i" d="M297.638,237.694h88.875l12.541,12.541H297.638V237.694Z"/><path class="i" d="M297.638,213.993h65.174l12.541,12.541H297.638V213.993Z"/><path class="i" d="M297.638,190.292h41.473l12.541,12.541H297.638V190.292Z"/><path class="i" d="M297.638,166.591H315.41l12.541,12.541H297.638V166.591Z"/><path class="i" d="M304.25,155.431h-6.612v-6.612l6.612,6.612Z"/><path class="e" d="M348.809,412.707a1.251,1.251,0,1,1-1.251,1.251,1.252,1.252,0,0,1,1.251-1.251Zm10.642,0a1.252,1.252,0,1,1-1.252,1.252,1.252,1.252,0,0,1,1.252-1.252Zm10.642,0a1.251,1.251,0,1,1-1.251,1.251,1.252,1.252,0,0,1,1.251-1.251Zm10.642,0a1.251,1.251,0,1,1-1.251,1.251,1.252,1.252,0,0,1,1.251-1.251Zm10.642,0a1.252,1.252,0,1,1-1.251,1.252,1.252,1.252,0,0,1,1.251-1.252Zm10.642,0a1.252,1.252,0,1,1-1.251,1.252,1.252,1.252,0,0,1,1.251-1.252Zm10.642,0a1.251,1.251,0,1,1-1.251,1.251,1.252,1.252,0,0,1,1.251-1.251Zm10.642,0a1.252,1.252,0,1,1-1.251,1.252,1.252,1.252,0,0,1,1.251-1.252Zm10.642,0a1.252,1.252,0,1,1-1.251,1.252,1.252,1.252,0,0,1,1.251-1.252Zm10.642,0a1.252,1.252,0,1,1-1.251,1.252,1.252,1.252,0,0,1,1.251-1.252Zm-95.776,12.672a1.251,1.251,0,1,1-1.251,1.251,1.251,1.251,0,0,1,1.251-1.251Zm10.642,0a1.251,1.251,0,1,1-1.252,1.251,1.251,1.251,0,0,1,1.252-1.251Zm10.642,0a1.251,1.251,0,1,1-1.251,1.251,1.251,1.251,0,0,1,1.251-1.251Zm10.642,0a1.251,1.251,0,1,1-1.251,1.251,1.251,1.251,0,0,1,1.251-1.251Zm10.642,0a1.251,1.251,0,1,1-1.252,1.251,1.251,1.251,0,0,1,1.252-1.251Zm10.642,0a1.251,1.251,0,1,1-1.252,1.251A1.251,1.251,0,0,1,402.018,425.379Zm10.642,0a1.251,1.251,0,1,1-1.251,1.251,1.251,1.251,0,0,1,1.251-1.251Zm10.642,0a1.251,1.251,0,1,1-1.252,1.251,1.251,1.251,0,0,1,1.252-1.251Zm10.642,0a1.251,1.251,0,1,1-1.251,1.251,1.251,1.251,0,0,1,1.251-1.251Zm10.642,0a1.251,1.251,0,1,1-1.251,1.251,1.251,1.251,0,0,1,1.251-1.251Zm-95.776,12.672a1.251,1.251,0,1,1-1.251,1.251,1.251,1.251,0,0,1,1.251-1.251Zm10.642,0A1.251,1.251,0,1,1,358.2,439.3a1.251,1.251,0,0,1,1.252-1.251Zm10.642,0a1.251,1.251,0,1,1-1.251,1.251,1.251,1.251,0,0,1,1.251-1.251Zm10.642,0a1.251,1.251,0,1,1-1.251,1.251,1.251,1.251,0,0,1,1.251-1.251Zm10.642,0a1.251,1.251,0,1,1-1.251,1.251,1.251,1.251,0,0,1,1.251-1.251Zm10.642,0a1.251,1.251,0,1,1-1.252,1.251A1.251,1.251,0,0,1,402.018,438.051Zm10.642,0a1.251,1.251,0,1,1-1.251,1.251,1.251,1.251,0,0,1,1.251-1.251Zm10.642,0a1.251,1.251,0,1,1-1.252,1.251,1.251,1.251,0,0,1,1.252-1.251Zm10.642,0a1.251,1.251,0,1,1-1.251,1.251,1.251,1.251,0,0,1,1.251-1.251Zm10.642,0a1.251,1.251,0,1,1-1.252,1.251,1.251,1.251,0,0,1,1.252-1.251Zm-95.776,12.672a1.251,1.251,0,1,1-1.251,1.251,1.251,1.251,0,0,1,1.251-1.251Zm10.642,0a1.251,1.251,0,1,1-1.252,1.251,1.251,1.251,0,0,1,1.252-1.251Zm10.642,0a1.251,1.251,0,1,1-1.251,1.251,1.251,1.251,0,0,1,1.251-1.251Zm10.642,0a1.251,1.251,0,1,1-1.251,1.251,1.251,1.251,0,0,1,1.251-1.251Zm10.642,0a1.251,1.251,0,1,1-1.252,1.251,1.251,1.251,0,0,1,1.252-1.251Zm10.642,0a1.251,1.251,0,1,1-1.252,1.251,1.251,1.251,0,0,1,1.252-1.251Zm10.642,0a1.251,1.251,0,1,1-1.251,1.251,1.251,1.251,0,0,1,1.251-1.251Zm10.642,0a1.251,1.251,0,1,1-1.252,1.251,1.251,1.251,0,0,1,1.252-1.251Zm10.642,0a1.251,1.251,0,1,1-1.251,1.251,1.251,1.251,0,0,1,1.251-1.251Zm10.642,0a1.251,1.251,0,1,1-1.251,1.251,1.251,1.251,0,0,1,1.251-1.251ZM348.809,463.4a1.251,1.251,0,1,1-1.251,1.251A1.251,1.251,0,0,1,348.809,463.4Zm10.642,0a1.251,1.251,0,1,1-1.252,1.251,1.251,1.251,0,0,1,1.252-1.251Zm10.642,0a1.251,1.251,0,1,1-1.251,1.251,1.251,1.251,0,0,1,1.251-1.251Zm10.642,0a1.251,1.251,0,1,1-1.251,1.251,1.251,1.251,0,0,1,1.251-1.251Zm10.642,0a1.251,1.251,0,1,1-1.251,1.251,1.251,1.251,0,0,1,1.251-1.251Zm10.642,0a1.251,1.251,0,1,1-1.252,1.251,1.251,1.251,0,0,1,1.252-1.251Zm10.642,0a1.251,1.251,0,1,1-1.251,1.251,1.251,1.251,0,0,1,1.251-1.251Zm10.642,0a1.251,1.251,0,1,1-1.252,1.251A1.251,1.251,0,0,1,423.3,463.4Zm10.642,0a1.251,1.251,0,1,1-1.251,1.251,1.251,1.251,0,0,1,1.251-1.251Zm10.642,0a1.251,1.251,0,1,1-1.251,1.251,1.251,1.251,0,0,1,1.251-1.251Zm-95.776,12.672a1.251,1.251,0,1,1-1.251,1.251,1.251,1.251,0,0,1,1.251-1.251Zm10.642,0a1.251,1.251,0,1,1-1.252,1.251,1.251,1.251,0,0,1,1.252-1.251Zm10.642,0a1.251,1.251,0,1,1-1.251,1.251A1.251,1.251,0,0,1,370.092,476.068Zm10.642,0a1.251,1.251,0,1,1-1.251,1.251,1.251,1.251,0,0,1,1.251-1.251Zm10.642,0a1.251,1.251,0,1,1-1.251,1.251,1.251,1.251,0,0,1,1.251-1.251Zm10.642,0a1.251,1.251,0,1,1-1.252,1.251,1.251,1.251,0,0,1,1.252-1.251Zm10.642,0a1.251,1.251,0,1,1-1.251,1.251,1.251,1.251,0,0,1,1.251-1.251Zm10.642,0a1.251,1.251,0,1,1-1.252,1.251,1.251,1.251,0,0,1,1.252-1.251Zm10.642,0a1.251,1.251,0,1,1-1.251,1.251,1.251,1.251,0,0,1,1.251-1.251Zm10.642,0a1.251,1.251,0,1,1-1.252,1.251,1.251,1.251,0,0,1,1.252-1.251ZM348.809,488.74a1.251,1.251,0,1,1-1.251,1.251,1.251,1.251,0,0,1,1.251-1.251Zm10.642,0a1.251,1.251,0,1,1-1.251,1.251A1.251,1.251,0,0,1,359.451,488.74Zm10.642,0a1.251,1.251,0,1,1-1.251,1.251,1.251,1.251,0,0,1,1.251-1.251Zm10.642,0a1.251,1.251,0,1,1-1.251,1.251,1.251,1.251,0,0,1,1.251-1.251Zm10.642,0a1.251,1.251,0,1,1-1.251,1.251,1.251,1.251,0,0,1,1.251-1.251Zm10.642,0a1.251,1.251,0,1,1-1.251,1.251,1.251,1.251,0,0,1,1.251-1.251Zm10.642,0a1.251,1.251,0,1,1-1.251,1.251,1.251,1.251,0,0,1,1.251-1.251Zm10.642,0a1.251,1.251,0,1,1-1.251,1.251,1.251,1.251,0,0,1,1.251-1.251Zm10.642,0a1.251,1.251,0,1,1-1.251,1.251,1.251,1.251,0,0,1,1.251-1.251Zm10.642,0a1.251,1.251,0,1,1-1.251,1.251,1.251,1.251,0,0,1,1.251-1.251Zm-95.776,12.672a1.251,1.251,0,1,1-1.251,1.251,1.252,1.252,0,0,1,1.251-1.251Zm10.642,0a1.251,1.251,0,1,1-1.252,1.251,1.251,1.251,0,0,1,1.252-1.251Zm10.642,0a1.251,1.251,0,1,1-1.251,1.251,1.252,1.252,0,0,1,1.251-1.251Zm10.642,0a1.251,1.251,0,1,1-1.251,1.251,1.252,1.252,0,0,1,1.251-1.251Zm10.642,0a1.251,1.251,0,1,1-1.251,1.251,1.252,1.252,0,0,1,1.251-1.251Zm10.642,0a1.251,1.251,0,1,1-1.251,1.251,1.251,1.251,0,0,1,1.251-1.251Zm10.642,0a1.251,1.251,0,1,1-1.251,1.251,1.252,1.252,0,0,1,1.251-1.251Zm10.642,0a1.251,1.251,0,1,1-1.251,1.251,1.251,1.251,0,0,1,1.251-1.251Zm10.642,0a1.251,1.251,0,1,1-1.251,1.251,1.251,1.251,0,0,1,1.251-1.251Zm10.642,0a1.251,1.251,0,1,1-1.251,1.251,1.251,1.251,0,0,1,1.251-1.251Z" transform="translate(0 0.11)"/><path class="f" d="M148.818,595.217H446.456V841.89H148.818V595.217Z"/><path class="e" d="M446.456,595.217H595.275V841.89H446.456V595.217Z"/><path class="i" d="M297.637,841.89V744.036l97.854,97.854Z"/><path class="e" d="M297.637,841.89V744.036L199.783,841.89Z"/><path class="f" d="M0,756.577H136.277l12.541-12.542H0v12.542Z"/><path class="f" d="M0,780.278H112.575l12.542-12.542H0v12.542Z"/><path class="f" d="M0,803.979H88.874l12.542-12.542H0v12.542Z"/><path class="f" d="M0,827.68H65.173l12.542-12.541H0V827.68Z"/><path class="f" d="M50.964,841.89l3.049-3.05H0v3.05Z"/><path class="f" d="M446.456,607.758H582.734l12.542-12.541H446.456v12.541Z"/><path class="f" d="M446.456,631.459H559.033l12.541-12.541H446.456v12.541Z"/><path class="f" d="M446.456,655.161h88.876l12.541-12.542H446.456v12.542Z"/><path class="f" d="M446.456,678.862H511.63l12.542-12.542H446.456v12.542Z"/><path class="f" d="M446.456,702.563h41.473l12.542-12.541H446.456v12.541Z"/><path class="f" d="M446.456,726.264h17.772l12.541-12.541H446.456v12.541Z"/><path class="f" d="M453.068,737.424h-6.612v6.612l6.612-6.612Z"/><path class="e" d="M88.345,669.588h0v14.134H102.48v14.135H88.345V683.722H60.473v14.135H46.338V683.722H60.473V669.588h0V655.531H46.339V641.4H60.473v14.135H88.345V641.4h14.134v14.135H88.345v14.057Z"/><path class="h" d="M250.593,684.218a3.688,3.688,0,1,1-3.688,3.688A3.688,3.688,0,0,1,250.593,684.218Zm31.362,0a3.688,3.688,0,1,1-3.688,3.688,3.688,3.688,0,0,1,3.688-3.688Zm31.362,0a3.688,3.688,0,1,1-3.688,3.688,3.688,3.688,0,0,1,3.688-3.688Zm31.363,0a3.688,3.688,0,1,1-3.688,3.688,3.688,3.688,0,0,1,3.688-3.688Zm-125.45,37.346a3.688,3.688,0,1,1-3.688,3.688,3.688,3.688,0,0,1,3.688-3.688Zm31.363,0a3.688,3.688,0,1,1-3.688,3.688,3.688,3.688,0,0,1,3.688-3.688Zm31.362,0a3.688,3.688,0,1,1-3.688,3.688,3.688,3.688,0,0,1,3.688-3.688Zm31.362,0a3.688,3.688,0,1,1-3.688,3.688,3.688,3.688,0,0,1,3.688-3.688Zm31.363,0a3.688,3.688,0,1,1-3.688,3.688,3.688,3.688,0,0,1,3.688-3.688Zm31.362,0a3.688,3.688,0,1,1-3.688,3.688,3.688,3.688,0,0,1,3.688-3.688ZM219.231,758.911a3.688,3.688,0,1,1-3.688,3.688,3.688,3.688,0,0,1,3.688-3.688Zm31.363,0a3.688,3.688,0,1,1-3.688,3.688A3.688,3.688,0,0,1,250.593,758.911Zm31.362,0a3.688,3.688,0,1,1-3.688,3.688,3.688,3.688,0,0,1,3.688-3.688Zm31.362,0a3.688,3.688,0,1,1-3.688,3.688,3.688,3.688,0,0,1,3.688-3.688Zm31.363,0a3.688,3.688,0,1,1-3.688,3.688,3.688,3.688,0,0,1,3.688-3.688Zm31.362,0a3.688,3.688,0,1,1-3.688,3.688,3.688,3.688,0,0,1,3.688-3.688Zm-125.45,37.346a3.688,3.688,0,1,1-3.688,3.688A3.688,3.688,0,0,1,250.593,796.257Zm31.362,0a3.688,3.688,0,1,1-3.688,3.688,3.688,3.688,0,0,1,3.688-3.688Zm31.362,0a3.688,3.688,0,1,1-3.688,3.688,3.688,3.688,0,0,1,3.688-3.688Zm31.363,0a3.688,3.688,0,1,1-3.688,3.688,3.688,3.688,0,0,1,3.688-3.688Z" transform="translate(0 0.11)"/><path class="f" d="M60.236,45.91H74.409V60.083H88.582V74.256H74.409V60.083H60.236V45.91Z"/></g><g transform="translate(776 1791)"><path class="j" d="M0,744.035H347.592V841.89H0V744.035Z"/><path class="k" d="M-2937.408,364.071V117.457H-3285V-329l148.819,148.819h297.637V117.4h148.82V364.071Z" transform="translate(3285 477.819)"/><path class="f" d="M297.638,595.216,446.457,744.035H148.819L50.964,841.89H0V595.216Z"/><path class="l" d="M446.457,744.035l97.855,97.855H348.6l97.855-97.855Z"/><path class="m" d="M347.607,595.231l-.015,49.94-49.924-49.925,49.939-.015Z"/><path class="n" d="M148.818,607.757H285.1l12.542-12.542H148.818v12.542Z"/><path class="n" d="M148.818,631.458H261.395l12.541-12.541H148.818v12.541Z"/><path class="n" d="M148.818,655.159h88.876l12.541-12.541H148.818v12.541Z"/><path class="n" d="M148.818,678.861h65.174l12.542-12.542H148.818v12.542Z"/><path class="n" d="M148.818,702.562h41.473l12.542-12.541H148.818v12.541Z"/><path class="n" d="M148.818,726.263H166.59l12.541-12.541H148.818v12.541Z"/><path class="n" d="M155.43,737.423h-6.612v6.612l6.612-6.612Z"/><path class="d" d="M378.319,827.862a1.784,1.784,0,1,1-1.784,1.784,1.784,1.784,0,0,1,1.784-1.784Zm15.173,0a1.784,1.784,0,1,1-1.784,1.784,1.784,1.784,0,0,1,1.784-1.784Zm15.173,0a1.784,1.784,0,1,1-1.784,1.784,1.784,1.784,0,0,1,1.784-1.784Zm15.173,0a1.784,1.784,0,1,1-1.784,1.784,1.784,1.784,0,0,1,1.784-1.784Zm15.173,0a1.784,1.784,0,1,1-1.784,1.784,1.784,1.784,0,0,1,1.784-1.784Zm15.173,0a1.784,1.784,0,1,1-1.784,1.784,1.784,1.784,0,0,1,1.784-1.784Zm15.173,0a1.784,1.784,0,1,1-1.784,1.784,1.784,1.784,0,0,1,1.784-1.784Zm15.173,0a1.784,1.784,0,1,1-1.784,1.784,1.784,1.784,0,0,1,1.784-1.784Zm15.173,0a1.784,1.784,0,1,1-1.784,1.784,1.784,1.784,0,0,1,1.784-1.784Zm15.173,0a1.784,1.784,0,1,1-1.784,1.784,1.784,1.784,0,0,1,1.784-1.784Z" transform="translate(0 0.11)"/><path class="f" d="M565.866,718.674h0v29.41h29.41v29.409h-29.41V748.084H536.457V718.835h0V689.426h29.409v-29.41h29.41v29.41h-29.41v29.248Z"/><path class="o" d="M65,702.936a33.423,33.423,0,1,1,23.632-9.789A33.423,33.423,0,0,1,65,702.936Zm-11.817-21.6a16.712,16.712,0,1,0-4.894-11.817,16.712,16.712,0,0,0,4.894,11.817Z" transform="translate(0 0.11)"/><path class="f" d="M0,0H297.638V297.638H0V0Z"/><path class="e" d="M297.638,0H446.457V297.638H148.819L297.638,148.819V0Z"/><path class="f" d="M446.457,0H595.276V446.457H446.457V297.638H297.638L446.457,148.819V0Z"/><path class="p" d="M595.276,595.276H446.457V446.457L595.276,297.638V595.276Z"/><path class="d" d="M28.892,32.8a1.131,1.131,0,1,1-1.131,1.131A1.131,1.131,0,0,1,28.892,32.8Zm9.615,0a1.131,1.131,0,1,1-1.13,1.131A1.131,1.131,0,0,1,38.507,32.8Zm9.616,0a1.131,1.131,0,1,1-1.131,1.131A1.131,1.131,0,0,1,48.123,32.8Zm9.616,0a1.131,1.131,0,1,1-1.131,1.131A1.131,1.131,0,0,1,57.738,32.8Zm9.615,0a1.131,1.131,0,1,1-1.131,1.131A1.131,1.131,0,0,1,67.354,32.8Zm9.616,0a1.131,1.131,0,1,1-1.131,1.131A1.131,1.131,0,0,1,76.969,32.8Zm9.615,0a1.131,1.131,0,1,1-1.13,1.131,1.131,1.131,0,0,1,1.13-1.131Zm9.616,0A1.131,1.131,0,1,1,95.07,33.93,1.131,1.131,0,0,1,96.2,32.8Zm9.615,0a1.131,1.131,0,1,1-1.13,1.131,1.131,1.131,0,0,1,1.13-1.131Zm9.616,0A1.131,1.131,0,1,1,114.3,33.93,1.131,1.131,0,0,1,115.432,32.8ZM28.892,44.25a1.131,1.131,0,1,1-1.131,1.131,1.131,1.131,0,0,1,1.131-1.131Zm9.615,0a1.131,1.131,0,1,1-1.131,1.131,1.131,1.131,0,0,1,1.131-1.131Zm9.616,0a1.131,1.131,0,1,1-1.131,1.131,1.131,1.131,0,0,1,1.131-1.131Zm9.616,0a1.131,1.131,0,1,1-1.131,1.131,1.131,1.131,0,0,1,1.131-1.131Zm9.615,0a1.131,1.131,0,1,1-1.131,1.131,1.131,1.131,0,0,1,1.131-1.131Zm9.616,0a1.131,1.131,0,1,1-1.131,1.131,1.131,1.131,0,0,1,1.131-1.131Zm9.615,0a1.131,1.131,0,1,1-1.13,1.131,1.131,1.131,0,0,1,1.13-1.131Zm9.616,0a1.131,1.131,0,1,1-1.131,1.131A1.131,1.131,0,0,1,96.2,44.25Zm9.615,0a1.131,1.131,0,1,1-1.13,1.131,1.131,1.131,0,0,1,1.13-1.131Zm9.616,0a1.131,1.131,0,1,1-1.131,1.131,1.131,1.131,0,0,1,1.131-1.131ZM28.892,55.7a1.131,1.131,0,1,1-1.131,1.131A1.131,1.131,0,0,1,28.892,55.7Zm9.615,0a1.131,1.131,0,1,1-1.131,1.131A1.131,1.131,0,0,1,38.507,55.7Zm9.616,0a1.131,1.131,0,1,1-1.131,1.131A1.131,1.131,0,0,1,48.123,55.7Zm9.616,0a1.131,1.131,0,1,1-1.131,1.131A1.131,1.131,0,0,1,57.738,55.7Zm9.615,0a1.131,1.131,0,1,1-1.131,1.131A1.131,1.131,0,0,1,67.354,55.7Zm9.616,0a1.131,1.131,0,1,1-1.131,1.131A1.131,1.131,0,0,1,76.969,55.7Zm9.615,0a1.131,1.131,0,1,1-1.13,1.131,1.131,1.131,0,0,1,1.13-1.131Zm9.616,0a1.131,1.131,0,1,1-1.131,1.131A1.131,1.131,0,0,1,96.2,55.7Zm9.615,0a1.131,1.131,0,1,1-1.13,1.131,1.131,1.131,0,0,1,1.13-1.131Zm9.616,0a1.131,1.131,0,1,1-1.131,1.131,1.131,1.131,0,0,1,1.131-1.131Zm-86.54,11.45a1.131,1.131,0,1,1-1.131,1.131,1.131,1.131,0,0,1,1.131-1.131Zm9.615,0a1.131,1.131,0,1,1-1.131,1.131,1.131,1.131,0,0,1,1.131-1.131Zm9.616,0a1.131,1.131,0,1,1-1.131,1.131,1.131,1.131,0,0,1,1.131-1.131Zm9.616,0a1.131,1.131,0,1,1-1.131,1.131,1.131,1.131,0,0,1,1.131-1.131Zm9.615,0a1.131,1.131,0,1,1-1.131,1.131,1.131,1.131,0,0,1,1.131-1.131Zm9.616,0a1.131,1.131,0,1,1-1.131,1.131,1.131,1.131,0,0,1,1.131-1.131Zm9.615,0a1.131,1.131,0,1,1-1.131,1.131,1.131,1.131,0,0,1,1.131-1.131Zm9.616,0a1.131,1.131,0,1,1-1.131,1.131A1.131,1.131,0,0,1,96.2,67.151Zm9.615,0a1.131,1.131,0,1,1-1.13,1.131A1.131,1.131,0,0,1,105.816,67.151Zm9.616,0a1.131,1.131,0,1,1-1.131,1.131,1.131,1.131,0,0,1,1.131-1.131ZM28.892,78.6a1.131,1.131,0,1,1-1.131,1.131A1.131,1.131,0,0,1,28.892,78.6Zm9.615,0a1.131,1.131,0,1,1-1.131,1.13,1.131,1.131,0,0,1,1.131-1.13Zm9.616,0a1.131,1.131,0,1,1-1.131,1.131A1.131,1.131,0,0,1,48.123,78.6Zm9.616,0a1.131,1.131,0,1,1-1.131,1.131A1.131,1.131,0,0,1,57.738,78.6Zm9.615,0a1.131,1.131,0,1,1-1.131,1.131A1.131,1.131,0,0,1,67.354,78.6Zm9.616,0a1.131,1.131,0,1,1-1.131,1.131A1.131,1.131,0,0,1,76.97,78.6Zm9.615,0a1.131,1.131,0,1,1-1.13,1.13A1.131,1.131,0,0,1,86.585,78.6Zm9.616,0a1.131,1.131,0,1,1-1.131,1.131A1.131,1.131,0,0,1,96.2,78.6Zm9.615,0a1.131,1.131,0,1,1-1.13,1.13,1.131,1.131,0,0,1,1.13-1.13Zm9.616,0a1.131,1.131,0,1,1-1.131,1.131,1.131,1.131,0,0,1,1.131-1.131Zm-86.54,11.45a1.131,1.131,0,1,1-1.131,1.131,1.131,1.131,0,0,1,1.131-1.131Zm9.615,0a1.131,1.131,0,1,1-1.131,1.131A1.131,1.131,0,0,1,38.507,90.051Zm9.616,0a1.131,1.131,0,1,1-1.131,1.131,1.131,1.131,0,0,1,1.131-1.131Zm9.616,0a1.131,1.131,0,1,1-1.131,1.131,1.131,1.131,0,0,1,1.131-1.131Zm9.615,0a1.131,1.131,0,1,1-1.131,1.131,1.131,1.131,0,0,1,1.131-1.131Zm9.616,0a1.131,1.131,0,1,1-1.131,1.131,1.131,1.131,0,0,1,1.131-1.131Zm9.615,0a1.131,1.131,0,1,1-1.13,1.131,1.131,1.131,0,0,1,1.13-1.131Zm9.616,0a1.131,1.131,0,1,1-1.131,1.131A1.131,1.131,0,0,1,96.2,90.051Zm9.615,0a1.131,1.131,0,1,1-1.13,1.131,1.131,1.131,0,0,1,1.13-1.131Zm9.616,0a1.131,1.131,0,1,1-1.131,1.131,1.131,1.131,0,0,1,1.131-1.131ZM28.892,101.5a1.131,1.131,0,1,1-1.131,1.131,1.131,1.131,0,0,1,1.131-1.131Zm9.615,0a1.131,1.131,0,1,1-1.131,1.131,1.131,1.131,0,0,1,1.131-1.131Zm9.616,0a1.131,1.131,0,1,1-1.131,1.131,1.131,1.131,0,0,1,1.131-1.131Zm9.616,0a1.131,1.131,0,1,1-1.131,1.131,1.131,1.131,0,0,1,1.131-1.131Zm9.615,0a1.131,1.131,0,1,1-1.131,1.131,1.131,1.131,0,0,1,1.131-1.131Zm9.616,0a1.131,1.131,0,1,1-1.131,1.131A1.131,1.131,0,0,1,76.97,101.5Zm9.615,0a1.131,1.131,0,1,1-1.13,1.131,1.131,1.131,0,0,1,1.13-1.131Zm9.616,0a1.131,1.131,0,1,1-1.131,1.131A1.131,1.131,0,0,1,96.2,101.5Zm9.615,0a1.131,1.131,0,1,1-1.13,1.131,1.131,1.131,0,0,1,1.13-1.131Zm9.616,0a1.131,1.131,0,1,1-1.131,1.131,1.131,1.131,0,0,1,1.131-1.131Zm-86.54,11.45a1.131,1.131,0,1,1-1.131,1.131,1.131,1.131,0,0,1,1.131-1.131Zm9.615,0a1.131,1.131,0,1,1-1.131,1.131,1.131,1.131,0,0,1,1.131-1.131Zm9.616,0a1.131,1.131,0,1,1-1.131,1.131,1.131,1.131,0,0,1,1.131-1.131Zm9.616,0a1.131,1.131,0,1,1-1.131,1.131,1.131,1.131,0,0,1,1.131-1.131Zm9.615,0a1.131,1.131,0,1,1-1.131,1.131,1.131,1.131,0,0,1,1.131-1.131Zm9.616,0a1.131,1.131,0,1,1-1.131,1.131A1.131,1.131,0,0,1,76.97,112.951Zm9.615,0a1.131,1.131,0,1,1-1.13,1.131,1.131,1.131,0,0,1,1.13-1.131Zm9.616,0a1.131,1.131,0,1,1-1.131,1.131,1.131,1.131,0,0,1,1.131-1.131Zm9.615,0a1.131,1.131,0,1,1-1.13,1.131,1.131,1.131,0,0,1,1.13-1.131Zm9.616,0a1.131,1.131,0,1,1-1.131,1.131A1.131,1.131,0,0,1,115.432,112.951Z" transform="translate(0 0.11)"/><path class="i" d="M554.613,492.52H526.266v28.346H497.92v28.347h28.346V520.866h28.347V492.52Z"/><path class="q" d="M446.457,446.457V595.276L297.638,446.457,446.457,297.638V446.457Z"/><path class="f" d="M31.942,581.535h84.935a74.261,74.261,0,0,1-16.524,8.656H48.466a74.261,74.261,0,0,1-16.524-8.656Z" transform="translate(0 0.11)"/><path class="f" d="M14.955,565.177h118.91a74.86,74.86,0,0,1-7.644,8.656H22.6a74.861,74.861,0,0,1-7.644-8.656Z" transform="translate(0 0.11)"/><path class="f" d="M5.612,548.82H143.207a74.155,74.155,0,0,1-4.249,8.656H9.862a74.142,74.142,0,0,1-4.249-8.656Z" transform="translate(0 0.11)"/><path class="f" d="M.973,532.462H147.846a73.949,73.949,0,0,1-1.943,8.656H2.917a73.953,73.953,0,0,1-1.943-8.656Z" transform="translate(0 0.11)"/><path class="f" d="M.128,516.1H148.691c.082,1.433.128,2.875.128,4.328s-.046,2.9-.128,4.328H.128C.049,523.372,0,521.976,0,520.568V520.3C0,518.889.049,517.492.128,516.1Z" transform="translate(0 0.11)"/><path class="f" d="M2.917,499.747H145.9a74.1,74.1,0,0,1,1.943,8.656H.973a74.1,74.1,0,0,1,1.943-8.656Z" transform="translate(0 0.11)"/><path class="f" d="M9.862,483.389h129.1a74.111,74.111,0,0,1,4.249,8.656H5.612a74.106,74.106,0,0,1,4.249-8.656Z" transform="translate(0 0.11)"/><path class="f" d="M22.6,467.032H126.221a74.908,74.908,0,0,1,7.644,8.656H14.955a74.882,74.882,0,0,1,7.644-8.656Z" transform="translate(0 0.11)"/><path class="f" d="M48.466,450.674h51.887a74.207,74.207,0,0,1,16.524,8.656H31.942a74.2,74.2,0,0,1,16.524-8.656Z" transform="translate(0 0.11)"/><path class="l" d="M148.819,297.638h74.41V595.276h-74.41V297.638Z"/><path class="f" d="M222.644,297.638h31.205V595.276H222.644V297.638Z"/><path class="d" d="M446.457,285.1H582.734l12.542,12.541H446.457V285.1Z"/><path class="d" d="M446.457,261.395H559.033l12.542,12.542H446.457V261.395Z"/><path class="d" d="M446.457,237.694h88.875l12.542,12.541H446.457V237.694Z"/><path class="d" d="M446.457,213.993h65.174l12.541,12.541H446.457V213.993Z"/><path class="d" d="M446.457,190.292H487.93l12.541,12.541H446.457V190.292Z"/><path class="d" d="M446.457,166.591h17.772l12.541,12.541H446.457V166.591Z"/><path class="d" d="M453.069,155.431h-6.612v-6.612l6.612,6.612Z"/><path class="l" d="M186.224,109.216h63.255a46.566,46.566,0,0,1-11.92,8.048H198.145a46.573,46.573,0,0,1-11.921-8.048Z" transform="translate(0 0.11)"/><path class="l" d="M175.355,94.007h28.9a23.25,23.25,0,0,0,27.2,0h28.9a46.417,46.417,0,0,1-4.587,8.048h-75.82a46.433,46.433,0,0,1-4.587-8.048Z" transform="translate(0 0.11)"/><path class="l" d="M171.513,78.8H194.9a23.091,23.091,0,0,0,2.864,8.048h-24.9a46.342,46.342,0,0,1-1.341-8.048Zm69.295,0H264.19a46.346,46.346,0,0,1-1.341,8.048h-24.9a23.09,23.09,0,0,0,2.864-8.048Z" transform="translate(0 0.11)"/><path class="l" d="M172.824,63.588h24.867a23.085,23.085,0,0,0-2.814,8.048H171.5a46.36,46.36,0,0,1,1.32-8.048Zm65.187,0h24.867a46.359,46.359,0,0,1,1.32,8.048H240.826a23.08,23.08,0,0,0-2.814-8.048Z" transform="translate(0 0.11)"/><path class="l" d="M179.86,48.379h75.983a46.442,46.442,0,0,1,4.557,8.048H231.61a23.249,23.249,0,0,0-27.516,0H175.3a46.424,46.424,0,0,1,4.557-8.048Z" transform="translate(0 0.11)"/><path class="l" d="M197.9,33.169h39.9a46.577,46.577,0,0,1,11.8,8.048H186.1a46.579,46.579,0,0,1,11.8-8.048Z" transform="translate(0 0.11)"/><path class="f" d="M446.457,12.541H310.18L297.638,0H446.457V12.541Z"/><path class="f" d="M446.457,36.243H333.881L321.339,23.7H446.457V36.243Z"/><path class="f" d="M446.457,59.944H357.582L345.04,47.4H446.457V59.944Z"/><path class="f" d="M446.457,83.645H381.283L368.741,71.1h77.716V83.645Z"/><path class="f" d="M446.457,107.346H404.984L392.443,94.8h54.014v12.542Z"/><path class="f" d="M446.457,131.047H428.685l-12.541-12.541h30.313v12.541Z"/><path class="f" d="M439.845,142.207h6.612v6.612l-6.612-6.612Z"/><path class="p" d="M237.931,493.391a3.688,3.688,0,1,1,3.688,3.688,3.688,3.688,0,0,1-3.688-3.688Zm0-31.362a3.688,3.688,0,1,1,3.688,3.688,3.688,3.688,0,0,1-3.688-3.688Zm0-31.363a3.688,3.688,0,1,1,3.688,3.688,3.688,3.688,0,0,1-3.688-3.688Zm0-31.363a3.688,3.688,0,1,1,3.688,3.688,3.688,3.688,0,0,1-3.688-3.688Zm37.346,125.45a3.688,3.688,0,1,1,3.688,3.688,3.688,3.688,0,0,1-3.688-3.688Zm0-31.362a3.688,3.688,0,1,1,3.688,3.688,3.688,3.688,0,0,1-3.688-3.688Zm0-31.362a3.688,3.688,0,1,1,3.688,3.688,3.688,3.688,0,0,1-3.688-3.688Zm0-31.363a3.688,3.688,0,1,1,3.688,3.688,3.688,3.688,0,0,1-3.688-3.688Zm0-31.363a3.688,3.688,0,1,1,3.688,3.688,3.688,3.688,0,0,1-3.688-3.688Zm0-31.362a3.688,3.688,0,1,1,3.688,3.688,3.688,3.688,0,0,1-3.688-3.688Zm37.346,156.812a3.688,3.688,0,1,1,3.688,3.688,3.688,3.688,0,0,1-3.688-3.688Zm0-31.362a3.688,3.688,0,1,1,3.688,3.688,3.688,3.688,0,0,1-3.688-3.688Zm0-31.362a3.688,3.688,0,1,1,3.688,3.688,3.688,3.688,0,0,1-3.688-3.688Zm0-31.363a3.688,3.688,0,1,1,3.688,3.688,3.688,3.688,0,0,1-3.688-3.688Zm0-31.363a3.688,3.688,0,1,1,3.688,3.688,3.688,3.688,0,0,1-3.688-3.688Zm0-31.362a3.688,3.688,0,1,1,3.688,3.688,3.688,3.688,0,0,1-3.688-3.688Zm37.346,125.45a3.688,3.688,0,1,1,3.688,3.688A3.688,3.688,0,0,1,349.97,493.391Zm0-31.362a3.688,3.688,0,1,1,3.688,3.688,3.688,3.688,0,0,1-3.688-3.688Zm0-31.363a3.688,3.688,0,1,1,3.688,3.688,3.688,3.688,0,0,1-3.688-3.688Zm0-31.363a3.688,3.688,0,1,1,3.688,3.688,3.688,3.688,0,0,1-3.688-3.688Z" transform="translate(0 0.11)"/><path class="p" d="M29.41,295.167h0v29.409H0v29.41H29.41v-29.41H58.819V295.328h0v-29.41H29.41V236.509H0v29.409H29.41v29.249Z"/><path class="d" d="M595.275,595.217h0V841.89h0V595.217Z"/><path class="f" d="M595.275,756.577h0V744.035h0v12.542Z"/><path class="f" d="M595.275,780.278h0V767.736h0v12.542Z"/><path class="f" d="M595.275,803.979h0V791.437h0v12.542Z"/><path class="f" d="M595.275,827.68h0V815.139h0V827.68Z"/><path class="f" d="M595.276,838.84h0v3.05h0v-3.05Z"/><path class="d" d="M231.051,841.89V744.035H238.3V841.89Z"/><path class="d" d="M217.345,841.89V744.035H224.6V841.89Z"/><path class="d" d="M203.64,841.89V744.035h7.252V841.89Z"/><path class="d" d="M189.935,841.89V744.035h7.252V841.89Z"/><path class="d" d="M176.229,841.89V744.035h7.252V841.89Z"/><path class="d" d="M162.524,841.89V744.035h7.252V841.89Z"/><path class="d" d="M148.818,841.89V744.035h7.252V841.89Z"/><path class="f" d="M397.579,556.741a1.924,1.924,0,1,1-1.924,1.924,1.924,1.924,0,0,1,1.924-1.924Zm0,19.485a1.924,1.924,0,1,1-1.924,1.924,1.924,1.924,0,0,1,1.924-1.924Zm16.363,0a1.924,1.924,0,1,1-1.924,1.924,1.924,1.924,0,0,1,1.924-1.924Zm-16.363,19.486a1.924,1.924,0,1,1-1.924,1.924A1.924,1.924,0,0,1,397.579,595.712Zm16.363,0a1.924,1.924,0,1,1-1.924,1.924,1.924,1.924,0,0,1,1.924-1.924Zm16.364,0a1.924,1.924,0,1,1-1.924,1.924,1.924,1.924,0,0,1,1.924-1.924ZM397.579,615.2a1.924,1.924,0,1,1-1.924,1.924,1.924,1.924,0,0,1,1.924-1.924Zm16.363,0a1.924,1.924,0,1,1-1.924,1.924,1.924,1.924,0,0,1,1.924-1.924Zm16.364,0a1.924,1.924,0,1,1-1.924,1.924A1.924,1.924,0,0,1,430.306,615.2Zm16.363,0a1.924,1.924,0,1,1-1.924,1.924,1.924,1.924,0,0,1,1.924-1.924Zm-49.09,19.486a1.924,1.924,0,1,1-1.924,1.924,1.924,1.924,0,0,1,1.924-1.924Zm16.363,0a1.924,1.924,0,1,1-1.924,1.924,1.924,1.924,0,0,1,1.924-1.924Zm16.364,0a1.924,1.924,0,1,1-1.924,1.924,1.924,1.924,0,0,1,1.924-1.924Zm16.363,0a1.924,1.924,0,1,1-1.924,1.924A1.924,1.924,0,0,1,446.669,634.683Zm16.364,0a1.924,1.924,0,1,1-1.924,1.924,1.924,1.924,0,0,1,1.924-1.924Zm-65.453,19.485a1.924,1.924,0,1,1-1.924,1.924,1.924,1.924,0,0,1,1.924-1.924Zm16.363,0a1.924,1.924,0,1,1-1.924,1.924,1.924,1.924,0,0,1,1.924-1.924Zm16.364,0a1.924,1.924,0,1,1-1.924,1.924A1.924,1.924,0,0,1,430.306,654.168Zm16.363,0a1.924,1.924,0,1,1-1.924,1.924,1.924,1.924,0,0,1,1.924-1.924Zm16.364,0a1.924,1.924,0,1,1-1.924,1.924,1.924,1.924,0,0,1,1.924-1.924Zm16.363,0a1.924,1.924,0,1,1-1.924,1.924,1.924,1.924,0,0,1,1.924-1.924Zm-81.817,19.485a1.924,1.924,0,1,1-1.924,1.924,1.924,1.924,0,0,1,1.924-1.924Zm16.363,0a1.924,1.924,0,1,1-1.924,1.924,1.924,1.924,0,0,1,1.924-1.924Zm16.364,0a1.924,1.924,0,1,1-1.924,1.924,1.924,1.924,0,0,1,1.924-1.924Zm16.363,0a1.924,1.924,0,1,1-1.924,1.924,1.924,1.924,0,0,1,1.924-1.924Zm16.364,0a1.924,1.924,0,1,1-1.924,1.924,1.924,1.924,0,0,1,1.924-1.924Zm16.363,0a1.924,1.924,0,1,1-1.924,1.924,1.924,1.924,0,0,1,1.924-1.924Zm16.363,0a1.924,1.924,0,1,1-1.924,1.924,1.924,1.924,0,0,1,1.924-1.924Z" transform="translate(0 0.11)"/></g><g transform="translate(1966 1516)"><path class="j" d="M0,744.035H347.592V841.89H0V744.035Z"/><path class="k" d="M-1618.408,558.071V311.457H-1966V-135l148.819,148.819h297.638V311.4h148.819V558.071Z" transform="translate(1966 283.819)"/><path class="f" d="M297.638,595.216,446.457,744.035H148.819L50.964,841.89H0V595.216Z"/><path class="l" d="M446.457,744.035l97.855,97.855H348.6l97.855-97.855Z"/><path class="m" d="M347.607,595.231l-.015,49.94-49.924-49.925,49.939-.015Z"/><path class="n" d="M148.818,607.757H285.1l12.542-12.542H148.818v12.542Z"/><path class="n" d="M148.818,631.458H261.395l12.541-12.541H148.818v12.541Z"/><path class="n" d="M148.818,655.159h88.876l12.541-12.541H148.818v12.541Z"/><path class="n" d="M148.818,678.861h65.174l12.542-12.542H148.818v12.542Z"/><path class="n" d="M148.818,702.562h41.473l12.542-12.541H148.818v12.541Z"/><path class="n" d="M148.818,726.263H166.59l12.541-12.541H148.818v12.541Z"/><path class="n" d="M155.43,737.423h-6.612v6.612l6.612-6.612Z"/><path class="d" d="M378.319,827.862a1.784,1.784,0,1,1-1.784,1.784,1.784,1.784,0,0,1,1.784-1.784Zm15.173,0a1.784,1.784,0,1,1-1.784,1.784,1.784,1.784,0,0,1,1.784-1.784Zm15.173,0a1.784,1.784,0,1,1-1.784,1.784,1.784,1.784,0,0,1,1.784-1.784Zm15.173,0a1.784,1.784,0,1,1-1.784,1.784,1.784,1.784,0,0,1,1.784-1.784Zm15.173,0a1.784,1.784,0,1,1-1.784,1.784,1.784,1.784,0,0,1,1.784-1.784Zm15.173,0a1.784,1.784,0,1,1-1.784,1.784,1.784,1.784,0,0,1,1.784-1.784Zm15.173,0a1.784,1.784,0,1,1-1.784,1.784,1.784,1.784,0,0,1,1.784-1.784Zm15.173,0a1.784,1.784,0,1,1-1.784,1.784,1.784,1.784,0,0,1,1.784-1.784Zm15.173,0a1.784,1.784,0,1,1-1.784,1.784,1.784,1.784,0,0,1,1.784-1.784Zm15.173,0a1.784,1.784,0,1,1-1.784,1.784,1.784,1.784,0,0,1,1.784-1.784Z" transform="translate(0 0.11)"/><path class="f" d="M565.866,718.674h0v29.41h29.41v29.409h-29.41V748.084H536.457V718.835h0V689.426h29.409v-29.41h29.41v29.41h-29.41v29.248Z"/><path class="o" d="M65,702.936a33.423,33.423,0,1,1,23.632-9.789A33.423,33.423,0,0,1,65,702.936Zm-11.817-21.6a16.712,16.712,0,1,0-4.894-11.817,16.712,16.712,0,0,0,4.894,11.817Z" transform="translate(0 0.11)"/><path class="f" d="M0,0H297.638V297.638H0V0Z"/><path class="e" d="M297.638,0H446.457V297.638H148.819L297.638,148.819V0Z"/><path class="f" d="M446.457,0H595.276V446.457H446.457V297.638H297.638L446.457,148.819V0Z"/><path class="p" d="M595.276,595.276H446.457V446.457L595.276,297.638V595.276Z"/><path class="d" d="M28.892,32.8a1.131,1.131,0,1,1-1.131,1.131A1.131,1.131,0,0,1,28.892,32.8Zm9.615,0a1.131,1.131,0,1,1-1.13,1.131A1.131,1.131,0,0,1,38.507,32.8Zm9.616,0a1.131,1.131,0,1,1-1.131,1.131A1.131,1.131,0,0,1,48.123,32.8Zm9.616,0a1.131,1.131,0,1,1-1.131,1.131A1.131,1.131,0,0,1,57.738,32.8Zm9.615,0a1.131,1.131,0,1,1-1.131,1.131A1.131,1.131,0,0,1,67.354,32.8Zm9.616,0a1.131,1.131,0,1,1-1.131,1.131A1.131,1.131,0,0,1,76.969,32.8Zm9.615,0a1.131,1.131,0,1,1-1.13,1.131,1.131,1.131,0,0,1,1.13-1.131Zm9.616,0A1.131,1.131,0,1,1,95.07,33.93,1.131,1.131,0,0,1,96.2,32.8Zm9.615,0a1.131,1.131,0,1,1-1.13,1.131,1.131,1.131,0,0,1,1.13-1.131Zm9.616,0A1.131,1.131,0,1,1,114.3,33.93,1.131,1.131,0,0,1,115.432,32.8ZM28.892,44.25a1.131,1.131,0,1,1-1.131,1.131,1.131,1.131,0,0,1,1.131-1.131Zm9.615,0a1.131,1.131,0,1,1-1.131,1.131,1.131,1.131,0,0,1,1.131-1.131Zm9.616,0a1.131,1.131,0,1,1-1.131,1.131,1.131,1.131,0,0,1,1.131-1.131Zm9.616,0a1.131,1.131,0,1,1-1.131,1.131,1.131,1.131,0,0,1,1.131-1.131Zm9.615,0a1.131,1.131,0,1,1-1.131,1.131,1.131,1.131,0,0,1,1.131-1.131Zm9.616,0a1.131,1.131,0,1,1-1.131,1.131,1.131,1.131,0,0,1,1.131-1.131Zm9.615,0a1.131,1.131,0,1,1-1.13,1.131,1.131,1.131,0,0,1,1.13-1.131Zm9.616,0a1.131,1.131,0,1,1-1.131,1.131A1.131,1.131,0,0,1,96.2,44.25Zm9.615,0a1.131,1.131,0,1,1-1.13,1.131,1.131,1.131,0,0,1,1.13-1.131Zm9.616,0a1.131,1.131,0,1,1-1.131,1.131,1.131,1.131,0,0,1,1.131-1.131ZM28.892,55.7a1.131,1.131,0,1,1-1.131,1.131A1.131,1.131,0,0,1,28.892,55.7Zm9.615,0a1.131,1.131,0,1,1-1.131,1.131A1.131,1.131,0,0,1,38.507,55.7Zm9.616,0a1.131,1.131,0,1,1-1.131,1.131A1.131,1.131,0,0,1,48.123,55.7Zm9.616,0a1.131,1.131,0,1,1-1.131,1.131A1.131,1.131,0,0,1,57.738,55.7Zm9.615,0a1.131,1.131,0,1,1-1.131,1.131A1.131,1.131,0,0,1,67.354,55.7Zm9.616,0a1.131,1.131,0,1,1-1.131,1.131A1.131,1.131,0,0,1,76.969,55.7Zm9.615,0a1.131,1.131,0,1,1-1.13,1.131,1.131,1.131,0,0,1,1.13-1.131Zm9.616,0a1.131,1.131,0,1,1-1.131,1.131A1.131,1.131,0,0,1,96.2,55.7Zm9.615,0a1.131,1.131,0,1,1-1.13,1.131,1.131,1.131,0,0,1,1.13-1.131Zm9.616,0a1.131,1.131,0,1,1-1.131,1.131,1.131,1.131,0,0,1,1.131-1.131Zm-86.54,11.45a1.131,1.131,0,1,1-1.131,1.131,1.131,1.131,0,0,1,1.131-1.131Zm9.615,0a1.131,1.131,0,1,1-1.131,1.131,1.131,1.131,0,0,1,1.131-1.131Zm9.616,0a1.131,1.131,0,1,1-1.131,1.131,1.131,1.131,0,0,1,1.131-1.131Zm9.616,0a1.131,1.131,0,1,1-1.131,1.131,1.131,1.131,0,0,1,1.131-1.131Zm9.615,0a1.131,1.131,0,1,1-1.131,1.131,1.131,1.131,0,0,1,1.131-1.131Zm9.616,0a1.131,1.131,0,1,1-1.131,1.131,1.131,1.131,0,0,1,1.131-1.131Zm9.615,0a1.131,1.131,0,1,1-1.131,1.131,1.131,1.131,0,0,1,1.131-1.131Zm9.616,0a1.131,1.131,0,1,1-1.131,1.131A1.131,1.131,0,0,1,96.2,67.151Zm9.615,0a1.131,1.131,0,1,1-1.13,1.131A1.131,1.131,0,0,1,105.816,67.151Zm9.616,0a1.131,1.131,0,1,1-1.131,1.131,1.131,1.131,0,0,1,1.131-1.131ZM28.892,78.6a1.131,1.131,0,1,1-1.131,1.131A1.131,1.131,0,0,1,28.892,78.6Zm9.615,0a1.131,1.131,0,1,1-1.131,1.13,1.131,1.131,0,0,1,1.131-1.13Zm9.616,0a1.131,1.131,0,1,1-1.131,1.131A1.131,1.131,0,0,1,48.123,78.6Zm9.616,0a1.131,1.131,0,1,1-1.131,1.131A1.131,1.131,0,0,1,57.738,78.6Zm9.615,0a1.131,1.131,0,1,1-1.131,1.131A1.131,1.131,0,0,1,67.354,78.6Zm9.616,0a1.131,1.131,0,1,1-1.131,1.131A1.131,1.131,0,0,1,76.97,78.6Zm9.615,0a1.131,1.131,0,1,1-1.13,1.13A1.131,1.131,0,0,1,86.585,78.6Zm9.616,0a1.131,1.131,0,1,1-1.131,1.131A1.131,1.131,0,0,1,96.2,78.6Zm9.615,0a1.131,1.131,0,1,1-1.13,1.13,1.131,1.131,0,0,1,1.13-1.13Zm9.616,0a1.131,1.131,0,1,1-1.131,1.131,1.131,1.131,0,0,1,1.131-1.131Zm-86.54,11.45a1.131,1.131,0,1,1-1.131,1.131,1.131,1.131,0,0,1,1.131-1.131Zm9.615,0a1.131,1.131,0,1,1-1.131,1.131A1.131,1.131,0,0,1,38.507,90.051Zm9.616,0a1.131,1.131,0,1,1-1.131,1.131,1.131,1.131,0,0,1,1.131-1.131Zm9.616,0a1.131,1.131,0,1,1-1.131,1.131,1.131,1.131,0,0,1,1.131-1.131Zm9.615,0a1.131,1.131,0,1,1-1.131,1.131,1.131,1.131,0,0,1,1.131-1.131Zm9.616,0a1.131,1.131,0,1,1-1.131,1.131,1.131,1.131,0,0,1,1.131-1.131Zm9.615,0a1.131,1.131,0,1,1-1.13,1.131,1.131,1.131,0,0,1,1.13-1.131Zm9.616,0a1.131,1.131,0,1,1-1.131,1.131A1.131,1.131,0,0,1,96.2,90.051Zm9.615,0a1.131,1.131,0,1,1-1.13,1.131,1.131,1.131,0,0,1,1.13-1.131Zm9.616,0a1.131,1.131,0,1,1-1.131,1.131,1.131,1.131,0,0,1,1.131-1.131ZM28.892,101.5a1.131,1.131,0,1,1-1.131,1.131,1.131,1.131,0,0,1,1.131-1.131Zm9.615,0a1.131,1.131,0,1,1-1.131,1.131,1.131,1.131,0,0,1,1.131-1.131Zm9.616,0a1.131,1.131,0,1,1-1.131,1.131,1.131,1.131,0,0,1,1.131-1.131Zm9.616,0a1.131,1.131,0,1,1-1.131,1.131,1.131,1.131,0,0,1,1.131-1.131Zm9.615,0a1.131,1.131,0,1,1-1.131,1.131,1.131,1.131,0,0,1,1.131-1.131Zm9.616,0a1.131,1.131,0,1,1-1.131,1.131A1.131,1.131,0,0,1,76.97,101.5Zm9.615,0a1.131,1.131,0,1,1-1.13,1.131,1.131,1.131,0,0,1,1.13-1.131Zm9.616,0a1.131,1.131,0,1,1-1.131,1.131A1.131,1.131,0,0,1,96.2,101.5Zm9.615,0a1.131,1.131,0,1,1-1.13,1.131,1.131,1.131,0,0,1,1.13-1.131Zm9.616,0a1.131,1.131,0,1,1-1.131,1.131,1.131,1.131,0,0,1,1.131-1.131Zm-86.54,11.45a1.131,1.131,0,1,1-1.131,1.131,1.131,1.131,0,0,1,1.131-1.131Zm9.615,0a1.131,1.131,0,1,1-1.131,1.131,1.131,1.131,0,0,1,1.131-1.131Zm9.616,0a1.131,1.131,0,1,1-1.131,1.131,1.131,1.131,0,0,1,1.131-1.131Zm9.616,0a1.131,1.131,0,1,1-1.131,1.131,1.131,1.131,0,0,1,1.131-1.131Zm9.615,0a1.131,1.131,0,1,1-1.131,1.131,1.131,1.131,0,0,1,1.131-1.131Zm9.616,0a1.131,1.131,0,1,1-1.131,1.131A1.131,1.131,0,0,1,76.97,112.951Zm9.615,0a1.131,1.131,0,1,1-1.13,1.131,1.131,1.131,0,0,1,1.13-1.131Zm9.616,0a1.131,1.131,0,1,1-1.131,1.131,1.131,1.131,0,0,1,1.131-1.131Zm9.615,0a1.131,1.131,0,1,1-1.13,1.131,1.131,1.131,0,0,1,1.13-1.131Zm9.616,0a1.131,1.131,0,1,1-1.131,1.131A1.131,1.131,0,0,1,115.432,112.951Z" transform="translate(0 0.11)"/><path class="i" d="M554.613,492.52H526.266v28.346H497.92v28.347h28.346V520.866h28.347V492.52Z"/><path class="q" d="M446.457,446.457V595.276L297.638,446.457,446.457,297.638V446.457Z"/><path class="f" d="M31.942,581.535h84.935a74.261,74.261,0,0,1-16.524,8.656H48.466a74.261,74.261,0,0,1-16.524-8.656Z" transform="translate(0 0.11)"/><path class="f" d="M14.955,565.177h118.91a74.86,74.86,0,0,1-7.644,8.656H22.6a74.861,74.861,0,0,1-7.644-8.656Z" transform="translate(0 0.11)"/><path class="f" d="M5.612,548.82H143.207a74.155,74.155,0,0,1-4.249,8.656H9.862a74.142,74.142,0,0,1-4.249-8.656Z" transform="translate(0 0.11)"/><path class="f" d="M.973,532.462H147.846a73.949,73.949,0,0,1-1.943,8.656H2.917a73.953,73.953,0,0,1-1.943-8.656Z" transform="translate(0 0.11)"/><path class="f" d="M.128,516.1H148.691c.082,1.433.128,2.875.128,4.328s-.046,2.9-.128,4.328H.128C.049,523.372,0,521.976,0,520.568V520.3C0,518.889.049,517.492.128,516.1Z" transform="translate(0 0.11)"/><path class="f" d="M2.917,499.747H145.9a74.1,74.1,0,0,1,1.943,8.656H.973a74.1,74.1,0,0,1,1.943-8.656Z" transform="translate(0 0.11)"/><path class="f" d="M9.862,483.389h129.1a74.111,74.111,0,0,1,4.249,8.656H5.612a74.106,74.106,0,0,1,4.249-8.656Z" transform="translate(0 0.11)"/><path class="f" d="M22.6,467.032H126.221a74.908,74.908,0,0,1,7.644,8.656H14.955a74.882,74.882,0,0,1,7.644-8.656Z" transform="translate(0 0.11)"/><path class="f" d="M48.466,450.674h51.887a74.207,74.207,0,0,1,16.524,8.656H31.942a74.2,74.2,0,0,1,16.524-8.656Z" transform="translate(0 0.11)"/><path class="l" d="M148.819,297.638h74.41V595.276h-74.41V297.638Z"/><path class="f" d="M222.644,297.638h31.205V595.276H222.644V297.638Z"/><path class="d" d="M446.457,285.1H582.734l12.542,12.541H446.457V285.1Z"/><path class="d" d="M446.457,261.395H559.033l12.542,12.542H446.457V261.395Z"/><path class="d" d="M446.457,237.694h88.875l12.542,12.541H446.457V237.694Z"/><path class="d" d="M446.457,213.993h65.174l12.541,12.541H446.457V213.993Z"/><path class="d" d="M446.457,190.292H487.93l12.541,12.541H446.457V190.292Z"/><path class="d" d="M446.457,166.591h17.772l12.541,12.541H446.457V166.591Z"/><path class="d" d="M453.069,155.431h-6.612v-6.612l6.612,6.612Z"/><path class="l" d="M186.224,109.216h63.255a46.566,46.566,0,0,1-11.92,8.048H198.145a46.573,46.573,0,0,1-11.921-8.048Z" transform="translate(0 0.11)"/><path class="l" d="M175.355,94.007h28.9a23.25,23.25,0,0,0,27.2,0h28.9a46.417,46.417,0,0,1-4.587,8.048h-75.82a46.433,46.433,0,0,1-4.587-8.048Z" transform="translate(0 0.11)"/><path class="l" d="M171.513,78.8H194.9a23.091,23.091,0,0,0,2.864,8.048h-24.9a46.342,46.342,0,0,1-1.341-8.048Zm69.295,0H264.19a46.346,46.346,0,0,1-1.341,8.048h-24.9a23.09,23.09,0,0,0,2.864-8.048Z" transform="translate(0 0.11)"/><path class="l" d="M172.824,63.588h24.867a23.085,23.085,0,0,0-2.814,8.048H171.5a46.36,46.36,0,0,1,1.32-8.048Zm65.187,0h24.867a46.359,46.359,0,0,1,1.32,8.048H240.826a23.08,23.08,0,0,0-2.814-8.048Z" transform="translate(0 0.11)"/><path class="l" d="M179.86,48.379h75.983a46.442,46.442,0,0,1,4.557,8.048H231.61a23.249,23.249,0,0,0-27.516,0H175.3a46.424,46.424,0,0,1,4.557-8.048Z" transform="translate(0 0.11)"/><path class="l" d="M197.9,33.169h39.9a46.577,46.577,0,0,1,11.8,8.048H186.1a46.579,46.579,0,0,1,11.8-8.048Z" transform="translate(0 0.11)"/><path class="f" d="M446.457,12.541H310.18L297.638,0H446.457V12.541Z"/><path class="f" d="M446.457,36.243H333.881L321.339,23.7H446.457V36.243Z"/><path class="f" d="M446.457,59.944H357.582L345.04,47.4H446.457V59.944Z"/><path class="f" d="M446.457,83.645H381.283L368.741,71.1h77.716V83.645Z"/><path class="f" d="M446.457,107.346H404.984L392.443,94.8h54.014v12.542Z"/><path class="f" d="M446.457,131.047H428.685l-12.541-12.541h30.313v12.541Z"/><path class="f" d="M439.845,142.207h6.612v6.612l-6.612-6.612Z"/><path class="p" d="M237.931,493.391a3.688,3.688,0,1,1,3.688,3.688,3.688,3.688,0,0,1-3.688-3.688Zm0-31.362a3.688,3.688,0,1,1,3.688,3.688,3.688,3.688,0,0,1-3.688-3.688Zm0-31.363a3.688,3.688,0,1,1,3.688,3.688,3.688,3.688,0,0,1-3.688-3.688Zm0-31.363a3.688,3.688,0,1,1,3.688,3.688,3.688,3.688,0,0,1-3.688-3.688Zm37.346,125.45a3.688,3.688,0,1,1,3.688,3.688,3.688,3.688,0,0,1-3.688-3.688Zm0-31.362a3.688,3.688,0,1,1,3.688,3.688,3.688,3.688,0,0,1-3.688-3.688Zm0-31.362a3.688,3.688,0,1,1,3.688,3.688,3.688,3.688,0,0,1-3.688-3.688Zm0-31.363a3.688,3.688,0,1,1,3.688,3.688,3.688,3.688,0,0,1-3.688-3.688Zm0-31.363a3.688,3.688,0,1,1,3.688,3.688,3.688,3.688,0,0,1-3.688-3.688Zm0-31.362a3.688,3.688,0,1,1,3.688,3.688,3.688,3.688,0,0,1-3.688-3.688Zm37.346,156.812a3.688,3.688,0,1,1,3.688,3.688,3.688,3.688,0,0,1-3.688-3.688Zm0-31.362a3.688,3.688,0,1,1,3.688,3.688,3.688,3.688,0,0,1-3.688-3.688Zm0-31.362a3.688,3.688,0,1,1,3.688,3.688,3.688,3.688,0,0,1-3.688-3.688Zm0-31.363a3.688,3.688,0,1,1,3.688,3.688,3.688,3.688,0,0,1-3.688-3.688Zm0-31.363a3.688,3.688,0,1,1,3.688,3.688,3.688,3.688,0,0,1-3.688-3.688Zm0-31.362a3.688,3.688,0,1,1,3.688,3.688,3.688,3.688,0,0,1-3.688-3.688Zm37.346,125.45a3.688,3.688,0,1,1,3.688,3.688A3.688,3.688,0,0,1,349.97,493.391Zm0-31.362a3.688,3.688,0,1,1,3.688,3.688,3.688,3.688,0,0,1-3.688-3.688Zm0-31.363a3.688,3.688,0,1,1,3.688,3.688,3.688,3.688,0,0,1-3.688-3.688Zm0-31.363a3.688,3.688,0,1,1,3.688,3.688,3.688,3.688,0,0,1-3.688-3.688Z" transform="translate(0 0.11)"/><path class="p" d="M29.41,295.167h0v29.409H0v29.41H29.41v-29.41H58.819V295.328h0v-29.41H29.41V236.509H0v29.409H29.41v29.249Z"/><path class="d" d="M595.275,595.217h0V841.89h0V595.217Z"/><path class="f" d="M595.275,756.577h0V744.035h0v12.542Z"/><path class="f" d="M595.275,780.278h0V767.736h0v12.542Z"/><path class="f" d="M595.275,803.979h0V791.437h0v12.542Z"/><path class="f" d="M595.275,827.68h0V815.139h0V827.68Z"/><path class="f" d="M595.276,838.84h0v3.05h0v-3.05Z"/><path class="d" d="M231.051,841.89V744.035H238.3V841.89Z"/><path class="d" d="M217.345,841.89V744.035H224.6V841.89Z"/><path class="d" d="M203.64,841.89V744.035h7.252V841.89Z"/><path class="d" d="M189.935,841.89V744.035h7.252V841.89Z"/><path class="d" d="M176.229,841.89V744.035h7.252V841.89Z"/><path class="d" d="M162.524,841.89V744.035h7.252V841.89Z"/><path class="d" d="M148.818,841.89V744.035h7.252V841.89Z"/><path class="f" d="M397.579,556.741a1.924,1.924,0,1,1-1.924,1.924,1.924,1.924,0,0,1,1.924-1.924Zm0,19.485a1.924,1.924,0,1,1-1.924,1.924,1.924,1.924,0,0,1,1.924-1.924Zm16.363,0a1.924,1.924,0,1,1-1.924,1.924,1.924,1.924,0,0,1,1.924-1.924Zm-16.363,19.486a1.924,1.924,0,1,1-1.924,1.924A1.924,1.924,0,0,1,397.579,595.712Zm16.363,0a1.924,1.924,0,1,1-1.924,1.924,1.924,1.924,0,0,1,1.924-1.924Zm16.364,0a1.924,1.924,0,1,1-1.924,1.924,1.924,1.924,0,0,1,1.924-1.924ZM397.579,615.2a1.924,1.924,0,1,1-1.924,1.924,1.924,1.924,0,0,1,1.924-1.924Zm16.363,0a1.924,1.924,0,1,1-1.924,1.924,1.924,1.924,0,0,1,1.924-1.924Zm16.364,0a1.924,1.924,0,1,1-1.924,1.924A1.924,1.924,0,0,1,430.306,615.2Zm16.363,0a1.924,1.924,0,1,1-1.924,1.924,1.924,1.924,0,0,1,1.924-1.924Zm-49.09,19.486a1.924,1.924,0,1,1-1.924,1.924,1.924,1.924,0,0,1,1.924-1.924Zm16.363,0a1.924,1.924,0,1,1-1.924,1.924,1.924,1.924,0,0,1,1.924-1.924Zm16.364,0a1.924,1.924,0,1,1-1.924,1.924,1.924,1.924,0,0,1,1.924-1.924Zm16.363,0a1.924,1.924,0,1,1-1.924,1.924A1.924,1.924,0,0,1,446.669,634.683Zm16.364,0a1.924,1.924,0,1,1-1.924,1.924,1.924,1.924,0,0,1,1.924-1.924Zm-65.453,19.485a1.924,1.924,0,1,1-1.924,1.924,1.924,1.924,0,0,1,1.924-1.924Zm16.363,0a1.924,1.924,0,1,1-1.924,1.924,1.924,1.924,0,0,1,1.924-1.924Zm16.364,0a1.924,1.924,0,1,1-1.924,1.924A1.924,1.924,0,0,1,430.306,654.168Zm16.363,0a1.924,1.924,0,1,1-1.924,1.924,1.924,1.924,0,0,1,1.924-1.924Zm16.364,0a1.924,1.924,0,1,1-1.924,1.924,1.924,1.924,0,0,1,1.924-1.924Zm16.363,0a1.924,1.924,0,1,1-1.924,1.924,1.924,1.924,0,0,1,1.924-1.924Zm-81.817,19.485a1.924,1.924,0,1,1-1.924,1.924,1.924,1.924,0,0,1,1.924-1.924Zm16.363,0a1.924,1.924,0,1,1-1.924,1.924,1.924,1.924,0,0,1,1.924-1.924Zm16.364,0a1.924,1.924,0,1,1-1.924,1.924,1.924,1.924,0,0,1,1.924-1.924Zm16.363,0a1.924,1.924,0,1,1-1.924,1.924,1.924,1.924,0,0,1,1.924-1.924Zm16.364,0a1.924,1.924,0,1,1-1.924,1.924,1.924,1.924,0,0,1,1.924-1.924Zm16.363,0a1.924,1.924,0,1,1-1.924,1.924,1.924,1.924,0,0,1,1.924-1.924Zm16.363,0a1.924,1.924,0,1,1-1.924,1.924,1.924,1.924,0,0,1,1.924-1.924Z" transform="translate(0 0.11)"/></g></g></g></svg>